<svg xmlns="http://www.w3.org/2000/svg" viewBox="0 0 733.49 123.16"><defs><style>.cls-1{fill:#009490;}.cls-2{fill:#6abf4b;}.cls-3{fill:#021d49;}</style></defs><title>color-logo</title><g id="Layer_2" data-name="Layer 2"><g id="Layer_1-2" data-name="Layer 1"><path class="cls-1" d="M85.05,71.74a25.58,25.58,0,1,1,.19-19.87h14.7a61.29,61.29,0,0,1,11.22-26.8,61.59,61.59,0,1,0,0,73A61.22,61.22,0,0,1,100,71.74Z"/><path class="cls-2" d="M160.75,0a61.49,61.49,0,0,0-49.59,25.07,61.3,61.3,0,0,1,11.23,26.8h19V28.61l54.12,32.24L141.36,93.09V71.74H122.31a61.36,61.36,0,0,1-11.15,26.34A61.57,61.57,0,1,0,160.75,0Z"/><path class="cls-3" d="M111.16,98.08a61.36,61.36,0,0,0,11.15-26.34H100A61.22,61.22,0,0,0,111.16,98.08Z"/><path class="cls-3" d="M111.16,25.07a61.29,61.29,0,0,0-11.22,26.8h22.45A61.3,61.3,0,0,0,111.16,25.07Z"/><path class="cls-3" d="M266.28,86.26H246.13V40H265.3c9.62,0,14.76,5.39,14.76,13.39A11.13,11.13,0,0,1,275,62.53a10.8,10.8,0,0,1,5.72,10.08C280.71,81.45,274.53,86.26,266.28,86.26Zm-1.69-36.08H257.5v7.54h7.09c3.12,0,4.09-1.95,4.09-3.77S267.71,50.18,264.59,50.18Zm.58,17.75H257.5v8.13h7.67a3.82,3.82,0,0,0,4.16-4.1C269.33,70,268.29,67.93,265.17,67.93Z"/><path class="cls-3" d="M313.47,86.26,298.65,63V86.26H287.27V40h10L312,63.25V40h11.37V86.26Z"/><path class="cls-3" d="M344.67,86.65c-7.09,0-12.87-1.3-17.55-6.11l7.28-7.28c2.4,2.41,6.63,3.25,10.33,3.25,4.49,0,6.63-1.49,6.63-4.16a3.88,3.88,0,0,0-.91-2.73,5.14,5.14,0,0,0-3.05-1.23l-5.59-.78c-4.1-.59-7.22-2-9.3-4.1s-3.18-5.33-3.18-9.3c0-8.45,6.37-14.62,16.9-14.62,6.63,0,11.63,1.56,15.6,5.52l-7.15,7.15c-2.93-2.92-6.76-2.73-8.78-2.73-4,0-5.59,2.28-5.59,4.29a3.08,3.08,0,0,0,.91,2.15,5.22,5.22,0,0,0,3.19,1.36l5.59.78c4.16.59,7.15,1.89,9.1,3.84,2.47,2.41,3.44,5.85,3.44,10.14C362.54,81.52,354.42,86.65,344.67,86.65Z"/><path class="cls-3" d="M380.09,50.12v8.12h17.16V68.39H380.09V86.26H368.72V40h31.46V50.12Z"/><path class="cls-3" d="M421.3,86.26V40h4.94V81.84H449.9v4.42Z"/><path class="cls-3" d="M484.08,81.84a17,17,0,0,1-23.66,0c-4.35-4.35-4.35-8.9-4.35-18.72s0-14.37,4.35-18.72a17,17,0,0,1,23.66,0c4.36,4.35,4.36,8.9,4.36,18.72S488.44,77.49,484.08,81.84Zm-3.83-34.52a11.31,11.31,0,0,0-16,0c-2.93,3-3.25,6.11-3.25,15.8s.32,12.81,3.25,15.8a11.31,11.31,0,0,0,16,0c2.92-3,3.25-6.11,3.25-15.8S483.17,50.31,480.25,47.32Z"/><path class="cls-3" d="M528.48,81.32a17,17,0,0,1-24.18.52c-4.36-4.35-4.36-8.9-4.36-18.72s0-14.37,4.36-18.72a16.38,16.38,0,0,1,11.83-4.81c8.84,0,14.82,5.72,16.18,13.84h-4.94c-1.3-5.85-5.46-9.42-11.24-9.42a11.2,11.2,0,0,0-8,3.31c-2.92,3-3.25,6.11-3.25,15.8S505.21,76,508.13,79a11.59,11.59,0,0,0,16.77-.71c1.89-2.28,2.6-4.81,2.6-8.39V66.37H516.13V62h16.31v7.35C532.44,74.69,531.34,78.27,528.48,81.32Z"/><path class="cls-3" d="M545.57,86.26V40h4.94V86.26Z"/><path class="cls-3" d="M577.42,86.65c-6.95,0-11.5-1.75-15.86-6.11l3.38-3.38c3.84,3.84,7.41,5.07,12.61,5.07,6.76,0,10.92-3.18,10.92-8.58a7.43,7.43,0,0,0-2.21-5.78c-1.49-1.3-2.66-1.7-6-2.22l-5.4-.84a16.79,16.79,0,0,1-8.51-3.51c-2.34-2.08-3.51-4.94-3.51-8.65,0-7.86,5.65-13.06,14.82-13.06,5.91,0,9.81,1.49,13.78,5.07l-3.19,3.18c-2.86-2.6-5.91-4-10.79-4-6.17,0-9.75,3.44-9.75,8.58a6.69,6.69,0,0,0,2.08,5.33A13.28,13.28,0,0,0,576,60.32l5.07.79c4.36.65,6.5,1.56,8.45,3.25a11.56,11.56,0,0,1,3.9,9.16C593.41,81.65,587,86.65,577.42,86.65Z"/><path class="cls-3" d="M619,44.4V86.26H614V44.4H600.63V40h31.72V44.4Z"/><path class="cls-3" d="M642.62,86.26V40h4.94V86.26Z"/><path class="cls-3" d="M677,86.65a16.5,16.5,0,0,1-11.83-4.81c-4.35-4.35-4.35-8.9-4.35-18.72s0-14.37,4.35-18.72A16.5,16.5,0,0,1,677,39.59c8.32,0,14.5,5.07,16.06,13.78H688c-1.24-5.66-5.2-9.36-11-9.36a11.13,11.13,0,0,0-8,3.25c-2.93,3-3.25,6.17-3.25,15.86S666.08,76,669,79a11.13,11.13,0,0,0,8,3.25c5.79,0,9.88-3.7,11.12-9.36h4.94C691.56,81.58,685.26,86.65,677,86.65Z"/><path class="cls-3" d="M717.49,86.65c-7,0-11.5-1.75-15.86-6.11L705,77.16c3.84,3.84,7.41,5.07,12.61,5.07,6.76,0,10.92-3.18,10.92-8.58a7.43,7.43,0,0,0-2.21-5.78c-1.49-1.3-2.66-1.7-6-2.22l-5.4-.84a16.79,16.79,0,0,1-8.51-3.51c-2.34-2.08-3.51-4.94-3.51-8.65,0-7.86,5.65-13.06,14.82-13.06,5.92,0,9.82,1.49,13.78,5.07l-3.18,3.18c-2.86-2.6-5.92-4-10.8-4-6.17,0-9.75,3.44-9.75,8.58a6.69,6.69,0,0,0,2.08,5.33,13.28,13.28,0,0,0,6.24,2.53l5.07.79c4.36.65,6.51,1.56,8.46,3.25a11.59,11.59,0,0,1,3.9,9.16C733.49,81.65,727.12,86.65,717.49,86.65Z"/></g></g></svg>